<svg class="border shadow-md dark:border-slate-700" viewBox="0 0 786.72 786.72" xmlns="http://www.w3.org/2000/svg" preserveAspectRatio="none" style="width: 786.72px; height: 786.72px;"><rect class="bg" id="bg" x="0" y="0" width="786.72" height="786.72" fill="#ffffff"/><g transform="rotate(0 393.36 393.36)"><path id="-1" d="M -493.36 -48.67 S -256.68 -109.67&#10;            0.00 -48.67 35.36 -100.67&#10;            493.36 -48.67 659.72 -110.67&#10;            986.72 -48.67 1223.40 -88.01&#10;            1480.08 -48.67 h 110 V 986.72 H -493.36 Z" fill="#1BA4FF"/><path id="0" d="M -493.36 30.00 S -293.00 -9.34&#10;            0.00 30.00 168.36 -12.00&#10;            493.36 30.00 687.72 -33.00&#10;            986.72 30.00 1223.40 -9.34&#10;            1480.08 30.00 h 110 V 986.72 H -493.36 Z" fill="#1c97f2"/><path id="1" d="M -493.36 108.67 S -256.68 69.34&#10;            0.00 108.67 55.36 64.67&#10;            493.36 108.67 645.72 65.67&#10;            986.72 108.67 1008.08 60.67&#10;            1480.08 108.67 h 110 V 986.72 H -493.36 Z" fill="#1d8ae5"/><path id="2" d="M -493.36 187.34 S -337.00 116.34&#10;            0.00 187.34 160.36 120.34&#10;            493.36 187.34 730.04 148.01&#10;            986.72 187.34 1062.08 148.01&#10;            1480.08 187.34 h 110 V 986.72 H -493.36 Z" fill="#1e7dd8"/><path id="3" d="M -493.36 266.02 S -380.00 226.68&#10;            0.00 266.02 146.36 226.02&#10;            493.36 266.02 505.72 216.02&#10;            986.72 266.02 1107.08 226.68&#10;            1480.08 266.02 h 110 V 986.72 H -493.36 Z" fill="#1f70cb"/><path id="4" d="M -493.36 344.69 S -256.68 289.69&#10;            0.00 344.69 236.68 305.35&#10;            493.36 344.69 716.72 305.35&#10;            986.72 344.69 1034.08 305.35&#10;            1480.08 344.69 h 110 V 986.72 H -493.36 Z" fill="#2063be"/><path id="5" d="M -493.36 423.36 S -480.00 384.02&#10;            0.00 423.36 16.36 383.36&#10;            493.36 423.36 730.04 353.36&#10;            986.72 423.36 1134.08 366.36&#10;            1480.08 423.36 h 110 V 986.72 H -493.36 Z" fill="#2156b1"/><path id="6" d="M -493.36 502.03 S -256.68 461.03&#10;            0.00 502.03 -0.64 462.70&#10;            493.36 502.03 489.72 462.70&#10;            986.72 502.03 1096.08 462.70&#10;            1480.08 502.03 h 110 V 986.72 H -493.36 Z" fill="#2249a4"/><path id="7" d="M -493.36 580.70 S -334.00 541.37&#10;            0.00 580.70 236.68 541.37&#10;            493.36 580.70 730.04 509.70&#10;            986.72 580.70 1223.40 530.70&#10;            1480.08 580.70 h 110 V 986.72 H -493.36 Z" fill="#233c97"/><path id="8" d="M -493.36 659.38 S -256.68 620.04&#10;            0.00 659.38 236.68 620.04&#10;            493.36 659.38 694.72 620.04&#10;            986.72 659.38 1123.08 620.04&#10;            1480.08 659.38 h 110 V 986.72 H -493.36 Z" fill="#242f8a"/><path id="9" d="M -493.36 738.05 S -256.68 698.71&#10;            0.00 738.05 181.36 698.71&#10;            493.36 738.05 730.04 664.05&#10;            986.72 738.05 1146.08 663.05&#10;            1480.08 738.05 h 110 V 986.72 H -493.36 Z" fill="#25227d"/></g></svg>